name ./resultDataOpenSim/trcMotMarkerGrf/sub09/grf-04-03.mot
datacolumns 19
datarows 15
range 1.47200000 1.52800000
endheader

                time	     ground_force_vx	     ground_force_vy	     ground_force_vz	     ground_force_px	     ground_force_py	     ground_force_pz	   l_ground_force_vx	   l_ground_force_vy	   l_ground_force_vz	   l_ground_force_px	   l_ground_force_py	   l_ground_force_pz	     ground_torque_x	     ground_torque_y	     ground_torque_z	   l_ground_torque_x	   l_ground_torque_y	   l_ground_torque_z	
          1.47200000	        -41.39671730	        449.74221145	        -20.11226947	          1.11396047	          0.00000000	          0.11740594	          0.00000000	          0.00000000	          0.00000000	          0.00000000	          0.00000000	          0.00000000	          0.00000000	         -0.86125620	          0.00000000	          0.00000000	          0.00000000	          0.00000000	
          1.47600000	        -37.40687505	        450.27934609	        -16.79974466	          1.11441408	          0.00000000	          0.11719440	          0.00000000	          0.00000000	          0.00000000	          0.00000000	          0.00000000	          0.00000000	          0.00000000	         -0.67147791	          0.00000000	          0.00000000	          0.00000000	          0.00000000	
          1.48000000	        -33.70699204	        450.91787160	        -12.04804007	          1.11479412	          0.00000000	          0.11689780	          0.00000000	          0.00000000	          0.00000000	          0.00000000	          0.00000000	          0.00000000	          0.00000000	         -0.26941830	          0.00000000	          0.00000000	          0.00000000	          0.00000000	
          1.48400000	        -31.11192967	        451.66914821	         -6.62697219	          1.11526572	          0.00000000	          0.11653387	          0.00000000	          0.00000000	          0.00000000	          0.00000000	          0.00000000	          0.00000000	          0.00000000	          0.28969319	          0.00000000	          0.00000000	          0.00000000	          0.00000000	
          1.48800000	        -30.08795108	        452.55198258	         -1.39358838	          1.11593410	          0.00000000	          0.11613594	          0.00000000	          0.00000000	          0.00000000	          0.00000000	          0.00000000	          0.00000000	          0.00000000	          0.92090078	          0.00000000	          0.00000000	          0.00000000	          0.00000000	
          1.49200000	        -30.62717611	        453.55914545	          2.85828673	          1.11682180	          0.00000000	          0.11574411	          0.00000000	          0.00000000	          0.00000000	          0.00000000	          0.00000000	          0.00000000	          0.00000000	          1.52190010	          0.00000000	          0.00000000	          0.00000000	          0.00000000	
          1.49600000	        -32.25481062	        454.65245475	          5.53697340	          1.11786247	          0.00000000	          0.11540088	          0.00000000	          0.00000000	          0.00000000	          0.00000000	          0.00000000	          0.00000000	          0.00000000	          1.99088994	          0.00000000	          0.00000000	          0.00000000	          0.00000000	
          1.50000000	        -34.16708045	        455.78504788	          6.36208730	          1.11892678	          0.00000000	          0.11514111	          0.00000000	          0.00000000	          0.00000000	          0.00000000	          0.00000000	          0.00000000	          0.00000000	          2.24746486	          0.00000000	          0.00000000	          0.00000000	          0.00000000	
          1.50400000	        -35.46524161	        456.92316195	          5.40909432	          1.11983880	          0.00000000	          0.11498620	          0.00000000	          0.00000000	          0.00000000	          0.00000000	          0.00000000	          0.00000000	          0.00000000	          2.25172310	          0.00000000	          0.00000000	          0.00000000	          0.00000000	
          1.50800000	        -35.42124214	        458.04130650	          3.08020924	          1.12047936	          0.00000000	          0.11494013	          0.00000000	          0.00000000	          0.00000000	          0.00000000	          0.00000000	          0.00000000	          0.00000000	          2.01552883	          0.00000000	          0.00000000	          0.00000000	          0.00000000	
          1.51200000	        -33.69232589	        459.11007152	          0.01695837	          1.12081570	          0.00000000	          0.11498948	          0.00000000	          0.00000000	          0.00000000	          0.00000000	          0.00000000	          0.00000000	          0.00000000	          1.60151791	          0.00000000	          0.00000000	          0.00000000	          0.00000000	
          1.51600000	        -30.41403696	        460.10806021	         -3.04048480	          1.12089447	          0.00000000	          0.11511129	          0.00000000	          0.00000000	          0.00000000	          0.00000000	          0.00000000	          0.00000000	          0.00000000	          1.10961608	          0.00000000	          0.00000000	          0.00000000	          0.00000000	
          1.52000000	        -26.14465107	        461.04238417	         -5.41529521	          1.12080991	          0.00000000	          0.11526984	          0.00000000	          0.00000000	          0.00000000	          0.00000000	          0.00000000	          0.00000000	          0.00000000	          0.65499246	          0.00000000	          0.00000000	          0.00000000	          0.00000000	
          1.52400000	        -21.68755470	        461.94365418	         -6.62331074	          1.12066848	          0.00000000	          0.11543806	          0.00000000	          0.00000000	          0.00000000	          0.00000000	          0.00000000	          0.00000000	          0.00000000	          0.34342647	          0.00000000	          0.00000000	          0.00000000	          0.00000000	
          1.52800000	        -17.85779042	        462.84474792	         -6.44288183	          1.12058340	          0.00000000	          0.11560639	          0.00000000	          0.00000000	          0.00000000	          0.00000000	          0.00000000	          0.00000000	          0.00000000	          0.24978849	          0.00000000	          0.00000000	          0.00000000	          0.00000000	
